<?xml version="1.0" encoding="UTF-8" standalone="no"?>
<!-- Created with Inkscape (http://www.inkscape.org/) -->

<svg
   xmlns:dc="http://purl.org/dc/elements/1.1/"
   xmlns:cc="http://creativecommons.org/ns#"
   xmlns:rdf="http://www.w3.org/1999/02/22-rdf-syntax-ns#"
   xmlns:svg="http://www.w3.org/2000/svg"
   xmlns="http://www.w3.org/2000/svg"
   xmlns:sodipodi="http://sodipodi.sourceforge.net/DTD/sodipodi-0.dtd"
   xmlns:inkscape="http://www.inkscape.org/namespaces/inkscape"
   version="1.1"
   id="svg904"
   xml:space="preserve"
   width="638.65747"
   height="601.99011"
   viewBox="0 0 638.65747 601.99011"
   sodipodi:docname="mapmt_map.svg"
   inkscape:version="0.92.4 (33fec40, 2019-01-16)"><metadata
     id="metadata910"><rdf:RDF><cc:Work
         rdf:about=""><dc:format>image/svg+xml</dc:format><dc:type
           rdf:resource="http://purl.org/dc/dcmitype/StillImage" /><dc:title></dc:title></cc:Work></rdf:RDF></metadata><defs
     id="defs908"><clipPath
       clipPathUnits="userSpaceOnUse"
       id="clipPath922"><path
         d="M 16.484,451.493 H 479 v -452 H 16.484 Z"
         id="path920"
         inkscape:connector-curvature="0" /></clipPath><clipPath
       clipPathUnits="userSpaceOnUse"
       id="clipPath932"><path
         d="M 16,50 H 479 V 452 H 16 Z"
         id="path930"
         inkscape:connector-curvature="0" /></clipPath><clipPath
       clipPathUnits="userSpaceOnUse"
       id="clipPath992"><path
         d="M 91,0 H 468 V 49 H 91 Z"
         id="path990"
         inkscape:connector-curvature="0" /></clipPath></defs><sodipodi:namedview
     pagecolor="#ffffff"
     bordercolor="#666666"
     borderopacity="1"
     objecttolerance="10"
     gridtolerance="10"
     guidetolerance="10"
     inkscape:pageopacity="0"
     inkscape:pageshadow="2"
     inkscape:window-width="1920"
     inkscape:window-height="1172"
     id="namedview906"
     showgrid="false"
     inkscape:zoom="0.99586353"
     inkscape:cx="230.72719"
     inkscape:cy="214.05929"
     inkscape:window-x="0"
     inkscape:window-y="130"
     inkscape:window-maximized="1"
     inkscape:current-layer="g1142" /><g
     id="g912"
     inkscape:groupmode="layer"
     inkscape:label="Figure_03b_12700_crop"
     transform="matrix(1.3333333,0,0,-1.3333333,0,601.99011)"><g
       id="g914" /><g
       id="g916"><g
         id="g918"
         clip-path="url(#clipPath922)"><g
           id="g924"
           transform="translate(0,-0.507416)"><g
             id="g926"><g
               id="g928"
               clip-path="url(#clipPath932)"><g
                 id="g934"><g
                   id="g936"
                   transform="translate(0,452)"><path
                     d="m 81.426,-394.371 c 0,-3.164 2.582,-5.746 5.742,-5.746 h 384.727 c 3.16,0 5.746,2.582 5.746,5.746 V -7.094 c 0,3.156 -2.586,5.742 -5.746,5.742 H 87.168 c -3.16,0 -5.742,-2.586 -5.742,-5.742 z"
                     style="fill:none;stroke:#000000;stroke-width:2.7019999;stroke-linecap:butt;stroke-linejoin:miter;stroke-miterlimit:4;stroke-dasharray:none;stroke-opacity:1"
                     id="path938"
                     inkscape:connector-curvature="0" /></g><g
                   id="g940"
                   transform="translate(0,452)"><path
                     d="m 139.145,-11.586 v -378.117 m 46.652,378.117 v -378.117 m 46.668,378.117 v -378.117 m 46.656,378.117 v -378.117 m 46.668,378.117 v -378.117 m 46.66,378.117 v -378.117 m 46.656,378.117 V -389.703 M 91.035,-60.316 h 376.36 m -376.36,-46.832 h 376.36 M 91.035,-153.98 h 376.36 m -376.36,-46.829 h 376.36 m -376.36,-46.828 h 376.36 m -376.36,-46.832 h 376.36 m -376.36,-46.828 h 376.36 M 91.035,-11.586 H 467.402 V -389.703 H 91.035 Z"
                     style="fill:none;stroke:#000000;stroke-width:1.35099995;stroke-linecap:butt;stroke-linejoin:miter;stroke-miterlimit:4;stroke-dasharray:none;stroke-opacity:1"
                     id="path942"
                     inkscape:connector-curvature="0" /></g><text
                   transform="matrix(0,1,1,0,31.662006,207.87461)"
                   style="font-variant:normal;font-weight:normal;font-size:21.61370087px;font-family:'Liberation Sans';-inkscape-font-specification:LiberationSans;writing-mode:lr-tb;fill:#000000;fill-opacity:1;fill-rule:nonzero;stroke:none"
                   id="text946"><tspan
                     x="0 12.017218"
                     y="0"
                     sodipodi:role="line"
                     id="tspan944">6 </tspan></text>
<text
                   transform="matrix(0,1,1,0,31.662006,225.87882)"
                   style="font-variant:normal;font-weight:normal;font-size:21.61370087px;font-family:'DejaVu Sans';-inkscape-font-specification:DejaVuSans;writing-mode:lr-tb;fill:#000000;fill-opacity:1;fill-rule:nonzero;stroke:none"
                   id="text950"><tspan
                     x="0"
                     y="0"
                     id="tspan948">×</tspan></text>
<text
                   transform="matrix(0,1,1,0,31.662006,243.68851)"
                   style="font-variant:normal;font-weight:normal;font-size:21.61370087px;font-family:'Liberation Sans';-inkscape-font-specification:LiberationSans;writing-mode:lr-tb;fill:#000000;fill-opacity:1;fill-rule:nonzero;stroke:none"
                   id="text954"><tspan
                     x="0 12.017218 24.618004 36.635223 152.46304 164.48026 170.46725 182.48447 -179.45856 -167.44133 -161.45435 -149.43712"
                     y="0"
                     sodipodi:role="line"
                     id="tspan952">6=366.256.25</tspan></text>
<path
                   d="m 32.707,126.891 4.113,-15.356 4.114,15.356 z"
                   style="fill:#000000;fill-opacity:1;fill-rule:nonzero;stroke:none"
                   id="path956"
                   inkscape:connector-curvature="0" /><path
                   d="m 32.707,408.172 4.113,-15.356 4.114,15.356 z"
                   style="fill:#000000;fill-opacity:1;fill-rule:nonzero;stroke:none"
                   id="path958"
                   inkscape:connector-curvature="0" /><path
                   d="M 32.707,75.516 36.82,60.164 40.934,75.516 Z"
                   style="fill:#000000;fill-opacity:1;fill-rule:nonzero;stroke:none"
                   id="path960"
                   inkscape:connector-curvature="0" /><path
                   d="m 40.832,375.828 -4.113,15.356 -4.117,-15.356 z"
                   style="fill:#000000;fill-opacity:1;fill-rule:nonzero;stroke:none"
                   id="path962"
                   inkscape:connector-curvature="0" /><path
                   d="M 40.832,94.547 36.719,109.902 32.602,94.547 Z"
                   style="fill:#000000;fill-opacity:1;fill-rule:nonzero;stroke:none"
                   id="path964"
                   inkscape:connector-curvature="0" /><path
                   d="m 40.832,425.641 -4.113,15.351 -4.117,-15.351 z"
                   style="fill:#000000;fill-opacity:1;fill-rule:nonzero;stroke:none"
                   id="path966"
                   inkscape:connector-curvature="0" /><g
                   id="g968"
                   transform="translate(0,452)"><path
                     d="m 36.766,-22.977 v -357.742 m -7.012,39.875 h 48.18 m -48.18,-51.043 h 48.18 m -48.18,331.27 h 48.18 m -48.18,50.105 h 48.18"
                     style="fill:none;stroke:#000000;stroke-width:0.81099999;stroke-linecap:butt;stroke-linejoin:miter;stroke-miterlimit:4;stroke-dasharray:none;stroke-opacity:1"
                     id="path970"
                     inkscape:connector-curvature="0" /></g></g></g></g></g><text
           transform="matrix(1,0,0,-1,235.3133,12.227099)"
           style="font-variant:normal;font-weight:normal;font-size:21.61370087px;font-family:'Liberation Sans';-inkscape-font-specification:LiberationSans;writing-mode:lr-tb;fill:#000000;fill-opacity:1;fill-rule:nonzero;stroke:none"
           id="text974"><tspan
             x="0 12.017218"
             y="0"
             sodipodi:role="line"
             id="tspan972">6 </tspan></text>
<text
           transform="matrix(1,0,0,-1,253.31751,12.227099)"
           style="font-variant:normal;font-weight:normal;font-size:21.61370087px;font-family:'DejaVu Sans';-inkscape-font-specification:DejaVuSans;writing-mode:lr-tb;fill:#000000;fill-opacity:1;fill-rule:nonzero;stroke:none"
           id="text978"><tspan
             x="0"
             y="0"
             id="tspan976">×</tspan></text>
<text
           transform="matrix(1,0,0,-1,271.1272,12.227099)"
           style="font-variant:normal;font-weight:normal;font-size:21.61370087px;font-family:'Liberation Sans';-inkscape-font-specification:LiberationSans;writing-mode:lr-tb;fill:#000000;fill-opacity:1;fill-rule:nonzero;stroke:none"
           id="text982"><tspan
             x="0 12.017218 24.618004 36.635223 150.56104 162.57825 168.56525 180.58246 -176.56232 -164.5451 -158.55811 -146.54089"
             y="0"
             sodipodi:role="line"
             id="tspan980">6=366.256.25</tspan></text>
<g
           id="g984"
           transform="translate(0,-0.507416)"><g
             id="g986"><g
               id="g988"
               clip-path="url(#clipPath992)"><g
                 id="g994"><path
                   d="M 404.145,3.461 419.5,7.574 404.145,11.688 Z"
                   style="fill:#000000;fill-opacity:1;fill-rule:nonzero;stroke:none"
                   id="path996"
                   inkscape:connector-curvature="0" /><path
                   d="m 122.867,3.461 15.352,4.113 -15.352,4.114 z"
                   style="fill:#000000;fill-opacity:1;fill-rule:nonzero;stroke:none"
                   id="path998"
                   inkscape:connector-curvature="0" /><path
                   d="m 450.797,3.461 15.359,4.113 -15.359,4.114 z"
                   style="fill:#000000;fill-opacity:1;fill-rule:nonzero;stroke:none"
                   id="path1000"
                   inkscape:connector-curvature="0" /><path
                   d="M 155.211,11.59 139.852,7.473 155.211,3.367 Z"
                   style="fill:#000000;fill-opacity:1;fill-rule:nonzero;stroke:none"
                   id="path1002"
                   inkscape:connector-curvature="0" /><path
                   d="M 436.488,11.59 421.137,7.473 436.488,3.367 Z"
                   style="fill:#000000;fill-opacity:1;fill-rule:nonzero;stroke:none"
                   id="path1004"
                   inkscape:connector-curvature="0" /><path
                   d="M 107.488,11.59 92.141,7.473 107.488,3.367 Z"
                   style="fill:#000000;fill-opacity:1;fill-rule:nonzero;stroke:none"
                   id="path1006"
                   inkscape:connector-curvature="0" /><g
                   id="g1008"
                   transform="translate(0,452)"><path
                     d="m 104.113,-444.473 h 350.93 m -35.16,-7.019 v 48.18 m 47.328,-48.18 v 48.18 m -327.555,-48.18 v 48.18 m -48.011,-48.18 v 48.18"
                     style="fill:none;stroke:#000000;stroke-width:0.81099999;stroke-linecap:butt;stroke-linejoin:miter;stroke-miterlimit:4;stroke-dasharray:none;stroke-opacity:1"
                     id="path1010"
                     inkscape:connector-curvature="0" /></g></g></g></g></g><text
           transform="matrix(0.94999931,0,0,-1,103.4857,405.07759)"
           style="font-variant:normal;font-weight:normal;font-size:21.61370087px;font-family:'Liberation Sans';-inkscape-font-specification:LiberationSans;writing-mode:lr-tb;fill:#000000;fill-opacity:1;fill-rule:nonzero;stroke:none"
           id="text1140"><tspan
             x="0 14.394724"
             y="0"
             sodipodi:role="line"
             id="tspan1012">P1</tspan><tspan
             x="0 14.394724"
             y="46.750435"
             sodipodi:role="line"
             id="tspan1014">P9</tspan><tspan
             x="-6.0086088 8.386116 20.403334"
             y="93.50087"
             sodipodi:role="line"
             id="tspan1016">P17</tspan><tspan
             x="-6.0086088 8.386116 20.403334"
             y="140.2513"
             sodipodi:role="line"
             id="tspan1018">P25</tspan><tspan
             x="-6.0086088 8.386116 20.403334"
             y="187.00172"
             sodipodi:role="line"
             id="tspan1020">P33</tspan><tspan
             x="-6.0086088 8.386116 20.403334"
             y="233.75217"
             sodipodi:role="line"
             id="tspan1022">P41</tspan><tspan
             x="-6.0086088 8.386116 20.403334"
             y="280.48099"
             sodipodi:role="line"
             id="tspan1024">P49</tspan><tspan
             x="-6.0086088 8.386116 20.403334"
             y="327.23141"
             sodipodi:role="line"
             id="tspan1026">P57</tspan><tspan
             x="48.674053 63.068775"
             y="0.064862713"
             sodipodi:role="line"
             id="tspan1028">P2</tspan><tspan
             x="42.665443 57.060169 69.077385"
             y="46.815296"
             sodipodi:role="line"
             id="tspan1030">P10</tspan><tspan
             x="42.665443 57.060169 69.077385"
             y="93.565727"
             sodipodi:role="line"
             id="tspan1032">P18</tspan><tspan
             x="42.665443 57.060169 69.077385"
             y="140.31616"
             sodipodi:role="line"
             id="tspan1034">P26</tspan><tspan
             x="42.665443 57.060169 69.077385"
             y="187.0666"
             sodipodi:role="line"
             id="tspan1036">P34</tspan><tspan
             x="42.665443 57.060169 69.077385"
             y="233.79541"
             sodipodi:role="line"
             id="tspan1038">P42</tspan><tspan
             x="42.665443 57.060169 69.077385"
             y="280.54584"
             sodipodi:role="line"
             id="tspan1040">P50</tspan><tspan
             x="42.665443 57.060169 69.077385"
             y="327.27466"
             sodipodi:role="line"
             id="tspan1042">P58</tspan><tspan
             x="97.348106 111.74283"
             y="0.10809011"
             sodipodi:role="line"
             id="tspan1044">P3</tspan><tspan
             x="91.339493 105.73422 117.75143"
             y="46.858524"
             sodipodi:role="line"
             id="tspan1046">P11</tspan><tspan
             x="91.339493 105.73422 117.75143"
             y="93.608955"
             sodipodi:role="line"
             id="tspan1048">P19</tspan><tspan
             x="91.339493 105.73422 117.75143"
             y="140.35939"
             sodipodi:role="line"
             id="tspan1050">P27</tspan><tspan
             x="91.339493 105.73422 117.75143"
             y="187.08821"
             sodipodi:role="line"
             id="tspan1052">P35</tspan><tspan
             x="91.339493 105.73422 117.75143"
             y="233.83864"
             sodipodi:role="line"
             id="tspan1054">P43</tspan><tspan
             x="91.339493 105.73422 117.75143"
             y="280.58908"
             sodipodi:role="line"
             id="tspan1056">P51</tspan><tspan
             x="91.339493 105.73422 117.75143"
             y="327.3179"
             sodipodi:role="line"
             id="tspan1058">P59</tspan><tspan
             x="146.02216 160.41689"
             y="0.15133913"
             sodipodi:role="line"
             id="tspan1060">P4</tspan><tspan
             x="140.01355 154.40828 166.42549"
             y="46.901772"
             sodipodi:role="line"
             id="tspan1062">P12</tspan><tspan
             x="140.01355 154.40828 166.42549"
             y="93.652206"
             sodipodi:role="line"
             id="tspan1064">P20</tspan><tspan
             x="140.01355 154.40828 166.42549"
             y="140.40263"
             sodipodi:role="line"
             id="tspan1066">P28</tspan><tspan
             x="140.01355 154.40828 166.42549"
             y="187.15308"
             sodipodi:role="line"
             id="tspan1068">P36</tspan><tspan
             x="140.01355 154.40828 166.42549"
             y="233.9035"
             sodipodi:role="line"
             id="tspan1070">P44</tspan><tspan
             x="140.01355 154.40828 166.42549"
             y="280.63235"
             sodipodi:role="line"
             id="tspan1072">P52</tspan><tspan
             x="140.01355 154.40828 166.42549"
             y="327.38278"
             sodipodi:role="line"
             id="tspan1074">P60</tspan><tspan
             x="194.69621 209.09093"
             y="0.21620184"
             sodipodi:role="line"
             id="tspan1076">P5</tspan><tspan
             x="188.68761 203.08232 215.09955"
             y="46.966637"
             sodipodi:role="line"
             id="tspan1078">P13</tspan><tspan
             x="188.68761 203.08232 215.09955"
             y="93.717072"
             sodipodi:role="line"
             id="tspan1080">P21</tspan><tspan
             x="188.68761 203.08232 215.09955"
             y="140.4675"
             sodipodi:role="line"
             id="tspan1082">P29</tspan><tspan
             x="188.68761 203.08232 215.09955"
             y="187.21793"
             sodipodi:role="line"
             id="tspan1084">P37</tspan><tspan
             x="188.68761 203.08232 215.09955"
             y="233.94675"
             sodipodi:role="line"
             id="tspan1086">P45</tspan><tspan
             x="188.68761 203.08232 215.09955"
             y="280.6972"
             sodipodi:role="line"
             id="tspan1088">P53</tspan><tspan
             x="188.68761 203.08232 215.09955"
             y="327.42599"
             sodipodi:role="line"
             id="tspan1090">P61</tspan><tspan
             x="243.37024 257.76495"
             y="0.25945085"
             sodipodi:role="line"
             id="tspan1092">P6</tspan><tspan
             x="237.36163 251.75636 263.77356"
             y="47.009884"
             sodipodi:role="line"
             id="tspan1094">P14</tspan><tspan
             x="237.36163 251.75636 263.77356"
             y="93.760315"
             sodipodi:role="line"
             id="tspan1096">P22</tspan><tspan
             x="237.36163 251.75636 263.77356"
             y="140.51076"
             sodipodi:role="line"
             id="tspan1098">P30</tspan><tspan
             x="237.36163 251.75636 263.77356"
             y="187.26118"
             sodipodi:role="line"
             id="tspan1100">P38</tspan><tspan
             x="237.36163 251.75636 263.77356"
             y="233.99001"
             sodipodi:role="line"
             id="tspan1102">P46</tspan><tspan
             x="237.36163 251.75636 263.77356"
             y="280.74045"
             sodipodi:role="line"
             id="tspan1104">P54</tspan><tspan
             x="237.36163 251.75636 263.77356"
             y="327.46927"
             sodipodi:role="line"
             id="tspan1106">P62</tspan><tspan
             x="292.04428 306.43903"
             y="0.30267826"
             sodipodi:role="line"
             id="tspan1108">P7</tspan><tspan
             x="286.03568 300.43042 312.44763"
             y="47.053112"
             sodipodi:role="line"
             id="tspan1110">P15</tspan><tspan
             x="286.03568 300.43042 312.44763"
             y="93.803543"
             sodipodi:role="line"
             id="tspan1112">P23</tspan><tspan
             x="286.03568 300.43042 312.44763"
             y="140.55399"
             sodipodi:role="line"
             id="tspan1114">P31</tspan><tspan
             x="286.03568 300.43042 312.44763"
             y="187.30441"
             sodipodi:role="line"
             id="tspan1116">P39</tspan><tspan
             x="286.03568 300.43042 312.44763"
             y="234.05484"
             sodipodi:role="line"
             id="tspan1118">P47</tspan><tspan
             x="286.03568 300.43042 312.44763"
             y="280.78363"
             sodipodi:role="line"
             id="tspan1120">P55</tspan><tspan
             x="286.03568 300.43042 312.44763"
             y="327.53406"
             sodipodi:role="line"
             id="tspan1122">P63</tspan><tspan
             x="340.71832 355.11304"
             y="0.36751935"
             sodipodi:role="line"
             id="tspan1124">P8</tspan><tspan
             x="334.70972 349.10443 361.12164"
             y="47.11795"
             sodipodi:role="line"
             id="tspan1126">P16</tspan><tspan
             x="334.70972 349.10443 361.12164"
             y="93.868385"
             sodipodi:role="line"
             id="tspan1128">P24</tspan><tspan
             x="334.70972 349.10443 361.12164"
             y="140.61882"
             sodipodi:role="line"
             id="tspan1130">P32</tspan><tspan
             x="334.70972 349.10443 361.12164"
             y="187.36925"
             sodipodi:role="line"
             id="tspan1132">P40</tspan><tspan
             x="334.70972 349.10443 361.12164"
             y="234.09805"
             sodipodi:role="line"
             id="tspan1134">P48</tspan><tspan
             x="334.70972 349.10443 361.12164"
             y="280.84848"
             sodipodi:role="line"
             id="tspan1136">P56</tspan><tspan
             x="334.70972 349.10443 361.12164"
             y="327.59891"
             sodipodi:role="line"
             id="tspan1138">P64</tspan></text>
<g
           id="g1142"
           transform="translate(0,451.49258)" /></g></g><g
       id="g1146"><text
         transform="matrix(1,0,0,-1,-2.0625,12.093701)"
         style="font-variant:normal;font-weight:normal;font-size:23.99999809px;font-family:'DejaVu Sans';-inkscape-font-specification:DejaVuSans;writing-mode:lr-tb;fill:#000000;fill-opacity:1;fill-rule:nonzero;stroke:none"
         id="text1150"><tspan
           x="0 9.3599997 32.736 56.112"
           y="0"
           sodipodi:role="line"
           id="tspan1148">(mm)</tspan></text>
</g></g></svg>